HIERARCHY
ROOT joint_Root
{
	OFFSET 0.0 0.0 0.0
	CHANNELS 6 Xposition Yposition Zposition Zrotation Xrotation Yrotation 
	JOINT Hips
	{
		OFFSET 4.5925 91.4895 -427.239
		CHANNELS 6 Xposition Yposition Zposition Zrotation Xrotation Yrotation 
		JOINT Spine
		{
			OFFSET 15.7357 0.0 0.0
			CHANNELS 6 Xposition Yposition Zposition Zrotation Xrotation Yrotation 
			JOINT Chest
			{
				OFFSET 8.98455 -0.406207 0.0
				CHANNELS 6 Xposition Yposition Zposition Zrotation Xrotation Yrotation 
				JOINT Neck
				{
					OFFSET 16.3773 0.0 0.0
					CHANNELS 6 Xposition Yposition Zposition Zrotation Xrotation Yrotation 
					JOINT Head
					{
						OFFSET 6.45672 0.0 0.0
						CHANNELS 6 Xposition Yposition Zposition Zrotation Xrotation Yrotation 
						End Site
						{
							OFFSET 0.0 0.0 0.0
						}
					}
				}
				JOINT Shoulder_L
				{
					OFFSET 12.9942 -0.242716 4.98039
					CHANNELS 6 Xposition Yposition Zposition Zrotation Xrotation Yrotation 
					JOINT UpperArm_L
					{
						OFFSET 5.34809 0.0 0.0
						CHANNELS 6 Xposition Yposition Zposition Zrotation Xrotation Yrotation 
						JOINT LowerArm_L
						{
							OFFSET 24.3286 1.87007e-05 0.0
							CHANNELS 6 Xposition Yposition Zposition Zrotation Xrotation Yrotation 
							JOINT Hand_L
							{
								OFFSET 22.2916 0.0 0.0
								CHANNELS 6 Xposition Yposition Zposition Zrotation Xrotation Yrotation 
								End Site
								{
									OFFSET 0.0 0.0 0.0
								}
							}
						}
					}
				}
				JOINT Shoulder_R
				{
					OFFSET 12.9945 -0.242716 -4.98039
					CHANNELS 6 Xposition Yposition Zposition Zrotation Xrotation Yrotation 
					JOINT UpperArm_R
					{
						OFFSET -5.34813 0.0 0.0
						CHANNELS 6 Xposition Yposition Zposition Zrotation Xrotation Yrotation 
						JOINT LowerArm_R
						{
							OFFSET -24.3289 0.000322201 0.0
							CHANNELS 6 Xposition Yposition Zposition Zrotation Xrotation Yrotation 
							JOINT Hand_R
							{
								OFFSET -22.2915 -0.000108084 0.0
								CHANNELS 6 Xposition Yposition Zposition Zrotation Xrotation Yrotation 
								End Site
								{
									OFFSET 0.0 0.0 0.0
								}
							}
						}
					}
				}
			}
		}
		JOINT UpperLeg_L
		{
			OFFSET -2.19248 -6.46944 0.0
			CHANNELS 6 Xposition Yposition Zposition Zrotation Xrotation Yrotation 
			JOINT LowerLeg_L
			{
				OFFSET 39.0811 0.0 -1.23785e-05
				CHANNELS 6 Xposition Yposition Zposition Zrotation Xrotation Yrotation 
				JOINT Foot_L
				{
					OFFSET 40.9854 0.0 -1.26872e-05
					CHANNELS 6 Xposition Yposition Zposition Zrotation Xrotation Yrotation 
					JOINT Toes_L
					{
						OFFSET 11.7543 0.0 0.0
						CHANNELS 6 Xposition Yposition Zposition Zrotation Xrotation Yrotation 
						End Site
						{
							OFFSET 0.0 0.0 0.0
						}
					}
				}
			}
		}
		JOINT UpperLeg_R
		{
			OFFSET -2.19251 6.46944 0.0
			CHANNELS 6 Xposition Yposition Zposition Zrotation Xrotation Yrotation 
			JOINT LowerLeg_R
			{
				OFFSET -39.0811 -0.00228153 -0.0401928
				CHANNELS 6 Xposition Yposition Zposition Zrotation Xrotation Yrotation 
				JOINT Foot_R
				{
					OFFSET -40.9854 0.0 0.0
					CHANNELS 6 Xposition Yposition Zposition Zrotation Xrotation Yrotation 
					JOINT Toes_R
					{
						OFFSET -11.7543 0.0 0.0
						CHANNELS 6 Xposition Yposition Zposition Zrotation Xrotation Yrotation 
						End Site
						{
							OFFSET 0.0 0.0 0.0
						}
					}
				}
			}
		}
	}
}
MOTION
Frames:	4
Frame Time:	0.0333333
0.000000 0.000000 0.000000 0.000000 0.000000 -0.000000 -2.230030 90.155400 1.285910 89.969600 -5.755070 14.584100 15.735700 0.000005 -0.000001 77.074500 82.074400 -75.426200 8.984550 -0.406207 -0.000000 7.747770 -3.531610 3.533470 16.377300 -0.000001 -0.000001 29.399900 -13.488500 2.964490 6.456720 -0.000001 -0.000000 14.631600 -16.392600 9.367190 12.994200 -0.242716 4.980390 -89.250500 -2.098990 -70.343900 5.348090 -0.000007 -0.000001 -62.217600 -35.916900 -75.843300 24.328600 0.000019 0.000005 24.201000 7.112270 -74.597800 22.291600 -0.000001 0.000005 14.901800 5.296620 0.167109 12.994500 -0.242716 -4.980390 87.887400 11.017900 -79.075200 -5.348130 -0.000001 -0.000004 -60.902800 34.125800 -9.141280 -24.328900 0.000322 -0.000009 1.204150 3.674400 -18.173700 -22.291500 -0.000108 -0.000004 11.693300 5.394730 -2.766730 -2.192480 -6.469440 -0.000000 -172.383000 -13.811500 6.798370 39.081100 -0.000007 -0.000012 -0.232721 0.376969 31.689400 40.985400 -0.000006 -0.000013 -0.224909 6.375970 -73.125100 11.754300 -0.000000 0.000003 -0.000161 -0.001539 -16.636000 -2.192510 6.469440 -0.000001 172.479000 17.580400 -172.785000 -39.081100 -0.002282 -0.040193 -0.253051 0.413662 31.787200 -40.985400 0.000008 0.000006 4.468770 14.261000 -74.219200 -11.754300 -0.000006 -0.000006 -0.001318 -0.019824 -17.379200
0.000000 0.000000 0.000000 0.000000 0.000000 -0.000000 -2.196230 90.154300 1.249170 89.966700 -5.766760 14.687600 15.735700 0.000005 -0.000001 77.208800 81.917000 -75.526500 8.984550 -0.406207 -0.000000 8.065090 -3.559290 3.613080 16.377300 -0.000001 -0.000001 29.805600 -13.670700 2.686590 6.456720 -0.000001 -0.000000 14.489800 -16.565500 8.524820 12.994200 -0.242716 4.980390 -89.280300 -2.017210 -70.359700 5.348090 -0.000007 -0.000001 -62.681200 -35.853900 -76.065700 24.328600 0.000019 0.000005 24.178400 7.142950 -74.519400 22.291600 -0.000001 0.000005 14.826900 5.296440 0.171917 12.994500 -0.242716 -4.980390 87.897700 10.913900 -79.027500 -5.348130 -0.000001 -0.000004 -61.048100 34.161800 -9.046140 -24.328900 0.000322 -0.000009 1.194640 3.645730 -18.171900 -22.291500 -0.000108 -0.000004 11.633900 5.394800 -2.769180 -2.192480 -6.469440 -0.000000 -172.373000 -13.825900 6.865270 39.081100 -0.000007 -0.000012 -0.231493 0.374530 31.720200 40.985400 -0.000006 -0.000013 -0.192692 6.392820 -73.121000 11.754300 -0.000000 0.000003 -0.000170 -0.001612 -16.638600 -2.192510 6.469440 -0.000001 172.438000 17.563000 -172.717000 -39.081100 -0.002282 -0.040193 -0.250464 0.409122 31.810100 -40.985400 0.000008 0.000006 4.452370 14.270900 -74.199000 -11.754300 -0.000006 -0.000006 -0.001170 -0.017800 -17.297000
0.000000 0.000000 0.000000 0.000000 0.000000 -0.000000 -2.153840 90.153300 1.170380 89.973100 -5.745020 14.691300 15.735700 0.000005 -0.000001 77.258700 81.767500 -75.544400 8.984550 -0.406207 -0.000000 8.362370 -3.605730 3.690050 16.377300 -0.000001 -0.000001 30.220900 -13.765400 2.580130 6.456720 -0.000001 -0.000000 14.436800 -16.713400 7.714360 12.994200 -0.242716 4.980390 -89.307800 -1.942900 -70.385800 5.348090 -0.000007 -0.000001 -63.062200 -35.827500 -76.252800 24.328600 0.000019 0.000005 24.193400 7.170490 -74.473200 22.291600 -0.000001 0.000005 14.883900 5.297750 0.135255 12.994500 -0.242716 -4.980390 87.927700 10.768100 -79.039100 -5.348130 -0.000001 -0.000004 -61.161200 34.120700 -8.984370 -24.328900 0.000322 -0.000009 1.230300 3.757200 -18.160400 -22.291500 -0.000108 -0.000004 11.595300 5.395590 -2.794780 -2.192480 -6.469440 -0.000000 -172.416000 -13.836500 6.769060 39.081100 -0.000007 -0.000012 -0.232850 0.375747 31.786800 40.985400 -0.000006 -0.000013 -0.156729 6.386610 -73.097400 11.754300 -0.000000 0.000003 -0.000168 -0.001595 -16.638000 -2.192510 6.469440 -0.000001 172.420000 17.577800 -172.804000 -39.081100 -0.002282 -0.040193 -0.252738 0.411786 31.872500 -40.985400 0.000008 0.000006 4.438480 14.269600 -74.166100 -11.754300 -0.000006 -0.000006 -0.001294 -0.019499 -17.366000
0.000000 0.000000 0.000000 0.000000 0.000000 -0.000000 -2.123820 90.171100 1.075050 89.989900 -5.784700 14.731000 15.735700 0.000005 -0.000001 77.491400 81.610500 -75.768500 8.984550 -0.406207 -0.000000 8.684300 -3.602500 3.717260 16.377300 -0.000001 -0.000001 30.663700 -13.862200 2.429110 6.456720 -0.000001 -0.000000 14.608300 -16.792900 7.328510 12.994200 -0.242716 4.980390 -89.308300 -1.945970 -70.427400 5.348090 -0.000007 -0.000001 -63.341900 -35.821300 -76.393700 24.328600 0.000019 0.000005 24.203800 7.167860 -74.485700 22.291600 -0.000001 0.000005 14.899000 5.297340 0.146642 12.994500 -0.242716 -4.980390 87.952100 10.683400 -79.082700 -5.348130 -0.000001 -0.000004 -61.172300 34.153200 -8.933900 -24.328900 0.000322 -0.000009 1.243750 3.817320 -18.076100 -22.291500 -0.000108 -0.000004 11.604500 5.395180 -2.781570 -2.192480 -6.469440 -0.000000 -172.434000 -13.926400 6.768000 39.081100 -0.000007 -0.000012 -0.229719 0.371232 31.749700 40.985400 -0.000006 -0.000013 -0.123412 6.401060 -73.018000 11.754300 -0.000000 0.000003 -0.000168 -0.001602 -16.638300 -2.192510 6.469440 -0.000001 172.411000 17.531000 -172.846000 -39.081100 -0.002282 -0.040193 -0.251334 0.409741 31.859100 -40.985400 0.000008 0.000006 4.427920 14.289700 -74.078800 -11.754300 -0.000006 -0.000006 -0.001284 -0.019360 -17.360400
